# xmcd CD database file
#
# Track frame offsets:
#	150
#	20446
#	33295
#	51188
#	71302
#	82964
#	97922
#	112747
#	121254
#	135663
#	149786
#	171553
#	181958
#	200256
#	214665
#	240332
#
# Disc length: 3438 seconds
#
# Revision: 2
# Processed by: cddbd v1.5.2PL0 Copyright (c) Steve Scherf et al.
# Submitted via: CDex 1.70beta2
#
DISCID=d40d6c10
DTITLE=Jazz in the City - Jazz in the City
DYEAR=2006
DGENRE=Jazz
TTITLE0=Duke Ellington - Take the "A" train
TTITLE1=Charlie Parker - How High the Moon
TTITLE2=Harry James - Flyin' Home
TTITLE3=Woody Herman - Woodchopper's Ball
TTITLE4=Glenn Miller - In the Mood
TTITLE5=Dizzy Gillespie - My Old Flame
TTITLE6=Bennie Goodman - Stompin' At the Savoy
TTITLE7=Count Basie - Lullaby of Birdland
TTITLE8=Gene Krupa - Disc Jockey Jump
TTITLE9=Miles Davis - Straight, No Chaser
TTITLE10=Sonny Rollins - Like Someone In Love
TTITLE11=Earl Bostic - Harlem Nocturne
TTITLE12=Dave Brubeck - All the Things You Are
TTITLE13=Cab Calloway - That Old Black Magic
TTITLE14=Oscar Peterson - Waltz For Debby
TTITLE15=Stan Kenton - Eager Beaver
EXTD=YEAR: 2006
EXTT0=
EXTT1=
EXTT2=
EXTT3=
EXTT4=
EXTT5=
EXTT6=
EXTT7=
EXTT8=
EXTT9=
EXTT10=
EXTT11=
EXTT12=
EXTT13=
EXTT14=
EXTT15=
PLAYORDER=
